<svg xmlns="http://www.w3.org/2000/svg" width="2784" height="1160" viewBox="-1392 -580 2784 1160"><path fill="none" stroke="#ff5f15" stroke-opacity="0.18" vector-effect="non-scaling-stroke" d="m-464-485 34 15 33 15 33 16 33 15 32 16 32 14 31 14 31 13 31 11 30 10 31 9 30 7 31 6 31 4 32 3 32 2 32 1 33 0 34 0 34 0 35 0 36 0 35 1 36 2 36 4 35 5 35 6 34 8 33 10 32 11 31 12 30 13 29 14 29 15 28 14 27 15 27 14 27 14 28 13 28 12 29 10 30 10 32 9 33 7 35 6 36 5 39 4 40 4m-1560-381 34 15 34 15 33 15 33 16 33 15 32 15 32 14 32 13 31 11 31 10 31 9 31 7 31 6 31 4 32 4 32 2 33 1 34 0 34 1 35 0 35 0 36 0 36 2 36 2 36 4 36 5 35 6 35 9 34 9 32 11 32 13 30 13 30 14 29 14 28 15 27 15 28 14 28 14 27 13 29 12 30 10 30 10 32 9 34 7 35 7 37 5 39 4 40 4m-1581-387 34 14 35 16 34 15 34 16 33 15 33 15 32 14 32 13 32 11 31 11 32 8 31 8 32 6 31 4 33 4 32 2 34 1 34 1 34 1 36 0 36 0 36 1 36 2 37 2 37 4 36 6 36 6 35 9 34 9 33 12 32 12 31 13 30 14 30 15 28 15 28 14 28 15 28 13 29 13 29 12 29 11 32 10 32 9 34 8 36 6 38 6 39 4 41 4m-1606-395 35 15 35 15 35 16 34 16 34 15 34 15 33 14 32 13 32 12 32 10 32 9 32 8 32 6 32 5 33 3 33 3 34 1 35 1 35 1 36 0 36 1 37 1 37 2 38 3 37 4 37 6 36 7 36 8 35 10 34 11 32 13 32 13 30 15 30 14 29 15 29 15 28 14 28 14 29 13 30 12 30 11 32 10 33 9 34 8 37 6 38 6 40 5 42 4m-1635-404 36 15 36 16 35 16 36 16 34 15 34 15 34 14 33 14 33 11 33 11 32 9 33 8 32 6 33 5 34 4 33 3 35 1 35 2 36 1 36 0 37 1 38 2 38 2 38 3 38 4 38 6 37 7 36 9 36 10 34 11 33 13 33 14 31 14 30 15 30 15 29 14 28 15 29 14 30 13 30 12 31 11 32 10 34 9 35 8 37 7 39 6 41 6 43 4m-1668-413 37 15 36 16 37 16 36 16 35 16 36 15 34 14 34 13 34 12 33 11 33 9 33 8 33 6 34 6 34 4 34 3 35 2 36 1 37 2 37 1 38 1 38 1 39 3 39 3 39 5 38 6 38 7 37 9 37 11 35 11 34 13 33 14 32 14 31 15 30 15 29 15 30 15 29 13 30 14 31 12 32 11 32 11 35 9 36 8 38 7 40 7 42 5 44 5m-1706-424 38 15 38 16 37 17 37 16 37 16 36 15 35 15 35 13 34 12 34 11 34 10 34 8 34 7 34 5 35 4 35 3 36 3 36 2 38 1 38 1 39 2 39 2 39 2 40 4 40 5 40 6 39 8 38 9 37 11 36 12 35 13 34 14 32 14 32 15 31 16 30 15 30 14 30 14 31 14 31 12 33 12 33 10 36 10 37 8 39 8 41 6 43 6 45 5m-1749-436 39 16 39 17 39 16 38 17 37 16 37 16 37 14 36 14 35 12 35 11 35 10 34 8 35 7 35 6 36 5 36 3 36 3 38 2 38 2 39 1 40 2 40 2 41 3 41 4 41 5 40 7 40 8 39 9 39 11 37 12 36 14 34 14 34 15 32 15 32 15 31 16 31 14 31 15 31 13 32 13 33 12 35 10 36 10 38 9 40 8 42 7 44 6 47 5m-1796-448 40 16 40 17 40 17 39 17 39 16 38 16 37 15 37 14 37 12 36 12 35 10 36 8 36 8 35 5 37 5 37 4 37 3 39 2 39 2 40 2 41 2 41 3 42 3 42 5 43 5 41 7 42 8 40 10 39 11 39 13 37 13 35 15 34 15 34 15 32 16 32 15 32 15 31 15 33 14 33 12 34 12 35 11 37 10 39 9 41 9 44 7 46 6 48 6m-1849-461 42 16 41 17 42 18 40 17 40 17 40 16 38 15 38 14 37 13 37 12 37 10 37 9 36 7 37 7 38 5 38 4 38 3 40 3 40 2 41 2 42 3 43 3 43 3 44 5 43 6 43 7 43 9 42 10 40 12 40 12 38 14 36 15 36 15 34 16 33 16 33 15 32 16 33 14 33 14 34 13 35 13 36 11 38 10 41 10 42 8 45 8 47 7 50 6m-1905-475 43 17 43 17 43 18 42 17 41 17 41 17 40 15 39 15 38 13 38 12 38 11 38 9 38 8 38 6 38 5 39 5 40 4 40 3 42 2 42 3 44 3 44 3 44 4 45 5 45 7 44 7 44 9 44 11 41 12 41 13 39 14 38 15 37 16 35 16 34 16 34 15 33 16 34 15 34 14 34 13 36 13 38 11 39 11 42 10 44 9 46 8 49 7 52 7m-1966-489 45 17 44 18 44 18 44 17 43 18 42 17 41 16 40 14 40 14 40 12 38 11 39 9 39 9 39 6 40 6 40 5 41 4 41 3 43 4 44 3 44 3 46 4 46 4 46 6 47 6 46 9 45 9 45 11 43 12 42 14 41 14 39 16 37 16 37 16 35 16 35 16 34 16 34 15 35 14 36 14 37 12 39 12 40 11 43 10 46 10 48 8 50 8 54 8m-2030-504 47 18 46 18 46 18 45 18 44 18 44 17 42 16 42 15 41 14 41 13 40 11 40 10 40 8 40 7 40 6 42 6 42 4 43 4 44 4 45 3 46 4 47 4 47 5 48 6 48 7 48 9 47 10 46 11 45 13 43 14 42 15 40 15 39 16 37 17 37 16 35 17 36 15 35 16 36 14 37 14 38 13 40 12 42 11 44 11 47 10 50 9 52 8 56 9m-2095-518 48 17 47 19 48 18 47 19 46 18 45 17 44 17 43 15 42 14 42 13 41 12 41 10 41 9 42 7 41 7 43 5 43 5 44 5 46 4 46 4 47 4 49 5 49 6 49 6 50 8 49 9 49 11 47 11 47 13 44 15 44 15 41 16 40 16 39 17 37 16 37 17 36 15 36 16 37 15 38 14 39 13 42 12 43 12 46 11 48 10 51 10 55 9 57 9m-2161-532 50 18 49 19 49 18 49 19 47 19 47 17 45 17 45 15 44 15 43 13 42 12 42 10 42 9 43 8 43 7 43 7 45 5 45 5 47 5 47 4 49 5 50 6 50 6 51 7 51 9 51 9 50 11 50 12 47 14 47 14 44 16 43 16 41 16 40 17 38 17 38 16 37 16 38 16 38 15 39 14 40 13 42 13 45 12 47 11 50 11 53 10 56 10 60 10m-2227-546 51 18 52 19 50 20 50 18 50 19 48 18 46 17 46 15 45 15 45 13 43 12 43 11 44 10 43 8 44 8 45 7 45 6 47 5 48 6 48 5 51 6 51 6 52 7 52 8 53 9 52 10 52 11 51 13 49 14 48 15 46 15 44 16 42 17 41 17 39 17 39 16 38 16 39 16 39 15 40 14 41 14 43 12 46 13 49 12 51 11 55 11 58 10 62 11m-2291-559 53 18 53 19 52 20 52 19 50 18 50 18 48 17 47 16 47 15 45 14 45 12 44 11 44 10 45 9 45 8 45 7 47 7 48 6 48 6 51 7 51 6 52 7 54 8 54 8 54 10 54 11 53 12 52 13 51 14 49 15 47 16 46 16 43 17 42 17 40 16 40 17 39 16 40 15 39 15 41 15 43 13 44 14 47 12 50 12 53 12 57 12 60 11 63 12m-2352-572 54 19 55 19 54 19 53 19 52 19 51 18 50 17 48 16 48 15 46 13 46 13 45 12 46 10 45 9 46 9 46 8 48 7 49 7 49 7 52 7 52 8 54 8 55 8 55 9 55 11 56 11 54 13 54 13 52 15 50 15 49 16 46 17 45 16 43 17 41 16 41 17 40 15 40 16 41 15 42 14 43 14 46 13 48 13 51 13m-2171-535 56 19 56 19 56 19 54 19 54 19 52 18 51 17 50 16 48 15 48 14 47 13 46 11 46 11 46 10 47 10 48 8 48 8 50 8 50 8 53 8 53 8 55 9 56 9 57 11 56 11 57 12 56 13 55 14 53 15 52 15 50 16 47 17 46 16 44 17 42 16 42 16 41 15 41 16 42 14 42 15m-2027-490 57 19 58 19 57 19 56 19 55 18 53 18 52 17 51 16 50 15 48 14 48 13 47 13 47 11 47 10 48 10 48 10 49 9 51 8 52 9 53 9 54 9 56 10 57 10 58 12 58 12 58 12 57 14 56 15 55 15 53 15 51 16 48 17 47 16 45 16 43 16m-1858-422 59 18 59 19 58 19 58 19 56 18 55 18 53 16 52 16 51 16 49 14 49 13 48 13 48 11 48 11 48 11 49 10 50 10 51 10 53 9 54 10 56 11 56 10 58 12 59 12 60 13 59 13 58 15 58 15 56 15 54 16 51 16m-1708-368 60 18 61 19 59 19 59 18 58 18 56 18 55 16 53 16 51 15 51 15 49 13 49 13 49 12 49 12 49 11 49 11 51 11 52 10 54 11 55 11 56 12 58 12 59 12 60 14 60 13 61 15m-1460-301 62 18 62 19 61 18 61 18 59 18 57 17 56 17 54 15 53 15 52 15 50 14 50 13 49 12 50 13 50 12 50 11 52 12 52 12 55 12 55 12 58 13m-1186-240 63 18 64 18 63 19 62 17 60 18 59 17 57 16 56 16 54 15 52 14 52 14 50 14 51 13 50 13 51 13m-886-166 65 18 66 18 64 17 64 18 62 17 61 17 58 16 57 15 55 15 54 15m-652-95 67 18 68 18 67 17 65 17 64 17 63 16m-446-28 70 17m736-1071-15 28-16 27-17 25-19 24-20 24-22 22-24 21-25 22-28 22-29 23-31 25-33 27-33 31-35 34-35 38-35 43-35 47-35 51-34 55-35 59-35 61-37 64-38 66-42 69-46 71-52 75m840-1039-15 28-16 26-16 26-18 24-19 24-21 22-23 22-24 22-26 22-28 24-29 25-31 28-32 30-33 35-34 38-33 43-34 48-33 51-33 55-33 58-34 61-35 64-37 66-40 69-44 71-49 74m803-1041-14 28-15 27-16 25-17 25-19 24-19 22-22 23-23 22-25 22-26 24-28 26-29 28-31 31-31 35-31 38-32 43-32 48-32 51-31 55-32 58-32 61-34 64-35 65-38 69-42 71-47 74m766-1043-14 27-14 27-15 26-17 25-17 24-19 23-20 22-22 23-23 23-25 24-27 26-27 28-29 31-30 35-30 40-30 43-30 47-30 51-30 55-31 58-31 61-32 63-33 66-37 67-39 71-45 74m730-1045-14 28-13 27-15 26-15 25-17 24-18 23-19 23-21 23-22 23-23 24-25 26-26 29-27 32-28 35-29 39-28 44-29 47-29 51-28 55-29 58-30 60-30 63-32 65-35 68-38 70-42 74m694-1046-13 27-13 27-14 26-15 25-16 25-16 23-19 23-19 23-21 24-22 24-23 27-25 29-25 32-27 36-26 39-28 43-27 48-27 51-27 54-28 58-28 60-29 63-31 65-33 67-36 70-39 73m659-1048-13 28-12 27-13 26-15 25-14 25-16 23-18 24-18 23-19 24-21 25-22 27-23 29-24 32-25 36-25 40-26 43-26 48-26 51-26 54-26 58-27 60-28 62-29 65-31 67-34 69m588-977-12 28-12 27-12 26-14 25-14 25-15 24-16 23-18 24-18 24-19 25-21 28-22 29-22 33-24 36-24 40-24 43-24 48-25 51-25 54-25 57-25 60-27 63-28 64-30 67-32 69m559-980-11 28-12 27-12 26-13 26-13 24-14 24-15 24-17 24-17 24-18 26-20 27-20 30-21 33-22 36-23 40-23 44-23 48-23 51-24 54-24 57-24 60-26 62-26 65-29 66-31 70m532-985-11 28-11 27-12 27-12 25-12 25-14 24-14 24-15 24-17 25-17 26-18 28-19 30-20 33-20 37-22 40-21 44-22 48-23 51-22 54-23 58-24 59-24 62-25 65-28 66-29 70m505-990-10 28-11 28-11 26-11 26-12 25-13 24-13 24-14 25-16 25-16 26-16 28-18 31-19 33-19 37-20 40-21 45-21 47-21 52-22 54-22 58-22 60-23 62-25 64-26 67m453-926-10 28-10 27-11 27-11 26-11 25-12 25-12 24-14 25-14 25-15 27-16 28-16 31-18 34-18 37-19 40-19 45-20 48-20 52-21 54-21 58-22 60-22 63-23 64-25 67m430-933-9 28-10 28-10 27-10 26-11 25-11 25-12 24-12 25-13 26-14 27-15 28-15 32-17 34-17 37-18 41-18 45-19 49-19 51-20 56-20 58-21 60-21 63-23 65-23 67m409-941-9 28-9 28-10 27-10 26-10 25-10 26-11 24-11 26-13 25-12 28-14 29-14 31-16 35-16 37-16 42-18 45-17 49-19 52-19 56-19 58-20 61-21 63-21 66-23 68m389-951-9 28-9 28-9 28-9 26-9 26-10 25-10 25-11 25-11 27-11 27-13 29-13 32-14 35-15 38-16 42-16 46-17 49-18 53-18 56-18 59-19 62-20 64-21 66-22 68m370-961-9 29-8 28-9 27-8 27-9 26-9 25-9 26-10 25-10 27-11 27-11 30-13 32-13 36-13 38-15 43-15 46-16 50-17 54-17 56-18 60-18 62-19 65-20 67m329-904-9 29-8 28-8 28-8 27-8 26-8 25-8 26-9 26-9 27-10 28-10 30-11 33-12 35-13 40-13 43-15 46-15 51-15 54-17 58-17 60-18 63-18 65-19 68m310-915-8 29-7 28-8 28-7 27-8 27-7 26-8 26-8 26-8 27-8 29-9 30-10 33-11 36-11 40-13 44-13 47-14 51-15 55-16 59-16 61-17 64-17 66-19 69m291-928-7 29-7 29-7 28-7 28-7 26-7 27-6 26-7 26-7 28-8 29-8 30-8 34-10 37-10 40-11 44-12 48-13 52-14 56-15 59-16 63-16 64-17 68-17 70m271-941-7 30-7 29-6 28-6 28-6 27-6 26-6 27-6 26-6 28-6 29-7 32-7 34-8 37-9 41-10 45-12 48-12 53-13 57-13 60-15 63-15 66-16 69-17 71m250-954-6 30-6 29-6 28-6 28-5 28-5 26-5 27-5 27-5 28-5 30-5 32-6 34-7 38-8 41-9 46-9 50-11 53-12 58-13 61-14 64-14 67-16 70-15 73m228-968-6 30-5 29-6 29-5 28-4 28-4 27-4 27-4 27-4 29-3 30-5 32-4 35-6 38-6 42-7 47-9 50-10 55-11 58-12 62-12 66-14 68-14 71m191-908-6 30-5 30-5 29-4 29-4 27-3 28-3 27-3 28-2 29-2 30-3 33-3 35-4 39-5 43-6 47-8 51-8 56-10 59-11 63-12 66-12 70-13 72m167-920-5 31-5 30-4 29-3 29-3 28-3 27-1 28-2 28-1 29-1 31-1 33-2 36-2 40-4 43-4 48-6 52-7 56-9 60-10 64-11 68-11 70-12 74m143-932-5 31-4 30-3 30-3 29-2 28-2 28 0 28-1 29 1 29 0 31 0 34 0 36-1 40-2 44-3 49-4 52-6 57-7 62-9 65-10 68-10 72-11 74m118-942-5 31-3 30-3 30-2 29-1 29-1 28 1 28 1 29 1 30 2 32 2 33 1 37 1 41-1 45-1 49-3 53-5 58-6 62-7 66-8 69-10 72-9 76m91-952-4 31-3 31-2 30-1 29-1 29 1 28 1 29 2 29 3 30 3 32 4 35 3 37 2 41 1 45 0 50-1 54-3 58-5 63-6 66-7 70-8 74m56-885-4 31-2 31-2 31 0 29 0 29 2 29 2 29 4 29 4 31 4 32 5 35 5 38 4 42 2 45 2 50 0 55-2 59-3 63-5 67-6 71-7 74m31-892-3 32-2 31-1 30 0 30 1 29 3 29 3 29 5 30 6 31 6 33 6 35 6 38 5 42 5 46 3 51 1 55 0 59-2 64-4 68-4 71-6 74m5-897-2 31-2 31 0 31 1 30 2 30 3 29 5 29 5 30 7 32 7 33 8 35 8 39 7 42 5 47 5 51 3 55 1 60-1 64-2 68-3 71-5 75m-20-902-2 31-1 32 1 30 1 30 3 30 4 30 6 29 7 31 8 31 8 34 9 36 9 39 8 43 8 46 6 52 4 55 2 60 1 64-1 68-2 72-4 75m-44-906-1 32-1 31 1 31 2 30 4 30 5 30 7 30 8 30 9 32 9 34 11 36 10 40 10 43 8 47 8 51 5 56 4 60 2 64 0 68-2 72m-69-834-1 32 0 31 2 31 3 31 4 30 6 30 7 30 9 31 10 32 11 34 12 37 11 39 11 44 10 47 9 51 7 56 4 61 3 64 1 68 0 71m-90-836 0 32 0 31 2 32 4 30 5 30 6 30 9 31 9 31 12 32 12 35 12 37 13 39 12 44 11 47 10 52 8 56 6 60 4 64 2 68 1 71m-109-837 0 31 1 32 2 31 4 31 6 30 7 30 9 31 11 31 12 33 13 35 14 37 13 40 14 44 12 47 11 52 9 56 7 60 5 64 3 67 2 71m-127-839 0 32 1 32 3 31 5 31 6 30 8 31 10 30 11 32 13 33 14 35 15 37 15 40 14 44 13 48 12 52 10 55 8 60 6 64 4 67m-141-769 0 32 2 31 4 32 5 30 6 31 9 31 11 31 12 31 14 33 15 35 16 38 15 41 16 44 14 47 13 52 11 56 9 60 7 63 5 67m-157-771 1 32 2 32 4 31 5 31 8 31 9 30 12 31 13 32 14 34 16 35 17 38 17 40 16 44 15 48 14 52 12 56 10 59 8 63 6 67m-172-772 2 32 2 31 4 32 6 31 8 30 10 31 13 32 13 32 16 33 17 36 17 38 18 41 17 44 17 48 15 52 13 55 10 60 9 63 6 66m-185-774 1 32 4 31 4 32 7 31 8 31 11 31 13 31 15 33 16 33 18 36 18 38 19 41 18 45 18 48 16 52 13 55 12 60 10 62 7 66m-200-776 2 32 4 31 5 32 7 31 9 31 11 31 14 32 16 32 17 34 18 36 20 39 20 41 19 45 19 48 17 52 14 56 13 59 10 63m-206-715 3 32 3 32 6 32 8 31 10 31 12 32 14 32 17 32 18 35 19 36 21 38 21 42 20 45 20 48 18 53 16 55 13 60 12 63m-221-719 3 32 5 32 6 32 8 31 10 32 13 31 16 32 17 33 19 35 21 36 22 39 22 42 22 45 20 49 19 52 17 57 15 59 12 63m-235-723 3 32 5 32 7 32 9 31 11 32 14 32 16 32 18 33 20 35 22 37 23 39 24 42 23 46 22 49 20 53 18 56 16 60 14 63m-252-729 4 32 5 33 7 32 10 31 12 32 15 32 17 33 19 33 22 36 23 37 24 39 25 43 25 46 23 49 22 54 19 56 17 61m-254-673 4 33 6 32 8 32 10 32 13 32 16 33 18 33 20 34 23 35 25 38 26 40 26 43 26 46 25 50 23 54 21 57 19 61m-273-680 5 33 7 33 8 32 11 32 14 33 17 32 19 34 22 34 24 36 26 38 28 40 28 44 27 47 27 50 25 55 23 58 20 62m-292-689 5 33 7 33 9 33 12 33 15 32 18 33 20 34 24 34 25 37 28 38 29 41 30 44 30 48 28 51 27 55 25 59 21 63m-313-697 5 33 8 33 10 33 13 33 16 33 19 33 22 34 25 35 27 37 30 39 31 42 32 45 31 48 31 52 29 56m-1889-967 49-13m-65 40 50-12 48-13m-115 50 51-11 50-11 47-12m-167 58 54-9 51-10 48-12 47-12m-220 67 56-9 53-9 50-10 47-11 46-12m-274 73 59-7 55-8 52-9 49-10 46-12 45-13m-330 80 62-6 57-6 54-8 51-9 48-11 45-12 44-14m-386 88 64-6 61-6 56-6 53-8 49-10 47-11 44-13 43-15m-445 97 68-6 63-5 59-6 55-7 51-9 49-10 45-12 44-14 42-17m-505 109 71-7 66-5 62-6 57-6 53-7 50-10 48-11 44-13 43-16 41-18m-566 124 74-8 69-7 65-5 60-6 56-7 52-8 48-11 46-12 44-15 42-17 41-19m-630 142 78-10 72-8 68-6 62-6 58-7 55-8 50-9 47-11 45-14 43-16 42-19 40-21m-693 166 80-13 75-10 71-8 65-7 61-7 56-7 53-9 49-11 46-13 44-15 43-18 41-20 40-22m-759 194 83-17 78-12 73-10 69-9 63-7 59-8 55-9 51-10 48-12 45-14 43-17 42-19 41-22 40-24m-825 228 85-20 80-16 77-13 71-11 66-9 62-8 56-9 54-10 49-12 47-13 44-16 43-18 42-21 40-24 41-25m-892 268 86-25 83-19 79-17 74-13 69-11 64-10 59-10 55-10 52-12 48-13 46-15 44-17 42-20 41-23 41-24 41-27m-959 313 88-29 85-24 80-20 77-16 71-14 67-12 62-12 57-11 54-12 50-13 47-14 45-17 43-19 42-21 42-24 40-26 41-28m-1026 363 89-32 87-29 82-23 79-21 74-17 69-15 64-13 60-13 55-13 53-13 49-15 46-16 44-19 43-20 42-23 41-25 41-27 41-29m-1093 418 90-36 88-32 84-28 80-25 76-20 72-19 66-16 62-15 58-14 54-14 51-15 48-17 46-17 44-20 43-22 41-24 42-27 41-28 41-29m-1162 477 92-40 89-36 86-32 82-28 78-25 73-22 69-19 64-18 60-16 56-16 53-16 50-17 47-18 45-19 44-21 42-23 42-26 42-27 41-28 41-30m-1231 538 94-43 91-39 87-36 83-32 79-29 76-25 70-23 67-21 62-19 59-18 54-17 52-18 49-18 46-20 45-21 43-22 43-25 42-26 41-27 42-29 41-30m-1303 602 97-46 93-42 89-39 84-36 81-32 77-30 72-26 69-25 64-22 61-20 56-20 54-19 50-20 48-20 47-20 44-23 43-23 43-25 42-27 42-28 41-29 42-30m-1377 668 100-48 96-45 90-42 87-39 82-36 78-33 74-31 70-28 67-25 62-24 59-22 55-22 53-20 49-21 48-22 46-22 44-23 43-25 43-25 42-28 42-28 41-29 41-29m-1454 736 105-51 99-47 93-45 89-42 84-40 79-36 76-34 71-32 68-29 65-27 60-25 58-24 54-23 52-23 49-22 47-23 45-23 44-24 44-25 42-27 42-27 42-28 41-28 41-29m-1536 805 111-53 104-51 96-47 91-45 86-42 81-40 77-37 73-35 70-33 66-31 62-28 59-27 57-26 53-25 51-24 49-23 46-24 46-24 44-25 43-25 42-27 42-27 41-27 41-28 41-27m-1624 876 119-57 110-53 101-50 94-48 88-45 83-42 78-41 75-38 71-36 67-34 64-33 61-30 58-28 56-28 53-26 50-25 48-25 47-25 45-24 44-26 43-25 42-26 41-27 41-27 40-26 40-26m-1589 888 117-56 106-54 99-50 91-47 85-45 80-44 76-41 72-39 69-38 66-35 62-34 60-32 58-30 54-29 53-27 50-26 48-26 46-26 45-25 44-25 42-26 42-25 41-26 40-26 39-25 39-25m-1554 900 114-57 103-53 95-50 88-48 83-46 77-44 74-42 70-40 67-39 64-37 62-35 59-34 56-31 55-30 52-29 49-27 48-27 46-26 45-25 43-25 42-25 41-25 40-25 39-24 38-25 38-23m-1519 909 110-57 100-53 92-50 85-48 80-47 75-44 71-44 69-41 65-40 63-39 61-37 59-35 56-33 54-31 51-30 50-28 47-27 46-26 44-25 42-25 42-24 40-24 39-23 38-24 37-22 36-22m-1484 916 106-57 97-53 88-51 82-49 77-47 73-45 70-45 67-43 65-41 62-40 60-38 58-36 56-35 54-32 51-30 49-29 47-27 45-26 44-25 41-24 41-23 39-23 37-22 37-22 36-22 34-20m-1347 864 92-53 86-51 79-50 75-47 71-47 68-45 66-45 64-43 62-41 60-39 58-38 55-35 54-33 51-31 49-29 46-27 44-26 43-24 40-23 39-22 38-22 36-21 35-21 34-20 33-19m-1318 868 89-54 83-51 77-50 72-49 70-47 67-47 65-46 64-44 61-43 60-40 58-39 56-36 53-34 50-31 49-29 45-27 43-24 42-24 39-22 37-21 36-20 35-20 33-19 33-19 31-19m-1290 871 86-55 80-52 75-50 71-50 69-49 66-48 65-46 63-46 62-44 60-42 58-39 55-37 53-34 50-31 47-29 45-26 42-24 39-22 38-21 35-20 35-19 33-19 31-18 31-18 30-18m-1179 817 78-53 73-51 70-51 68-50 66-49 65-48 63-47 62-45 60-42 57-41 55-37 53-34 49-31 46-28 43-25 40-23 38-21 36-20 34-18 32-19 31-17 30-18 30-17 29-17m-1155 816 75-53 72-53 70-51 67-51 66-50 65-50 64-48 61-46 60-43 58-41 55-37 51-34 48-30 45-27 41-25 39-22 35-20 34-18 32-18 30-17 30-17 28-17 29-17 28-17m-1131 816 74-54 71-53 69-53 67-52 66-51 66-51 63-49 63-46 60-44 57-41 54-37 50-34 47-30 42-26 40-23 36-21 34-19 31-17 30-17 29-16 27-16 28-17 27-17 27-17m-1107 815 73-55 71-54 68-54 68-53 67-53 65-51 65-50 62-47 60-44 56-41 53-37 49-33 45-28 40-26 38-22 33-20 32-18 29-16 28-16 27-16 26-16 26-16 26-17 27-18m-1010 759 70-56 69-54 68-54 68-54 66-52 64-50 62-48 60-44 55-41 52-36 47-32 42-28 39-24 34-21 32-19 29-17 27-16 26-16 25-15 25-16 25-17 26-17 26-18m-986 757 71-56 69-56 69-55 68-54 66-53 65-50 62-48 58-44 54-40 50-36 45-31 40-27 35-23 33-21 29-18 26-16 25-16 25-15 24-15 24-16 24-17 26-18 26-19m-962 757 71-57 71-57 69-56 68-55 67-53 65-51 61-48 57-43 52-40 48-34 42-31 37-26 33-22 30-20 26-17 25-16 23-16 23-15 23-16 23-16 24-18 25-18 27-20m-936 758 72-58 71-58 70-56 68-56 67-54 64-51 60-47 55-43 50-39 45-34 40-29 34-25 30-22 27-19 24-17 23-16 22-15 21-16 22-16 23-17 25-19 25-19 27-22m-910 761 72-59 72-58 70-58 69-56 67-53 62-51 59-47 53-43 48-38 42-33 36-28 32-25 27-21 25-19 22-17 21-16 20-15 21-16 21-17 23-18 25-20 26-21 27-22m-810 705 72-59 70-58 69-56 65-54 62-51 56-46 51-42 44-37 39-32 34-28 29-24 25-21 22-19 20-17 20-16 19-17 20-17 22-17 23-19 24-21 27-22 29-23m-783 709 72-60 70-58 68-56 64-54 59-50 54-46 48-41 42-37 36-31 30-28 26-23 23-21 20-19 19-18 19-17 18-17 20-17 22-19 23-20 26-22 27-23 30-25m-756 716 72-60 70-59 66-57 62-53 57-50 51-45 45-40 38-36 33-31 28-28 24-23 20-21 19-20 18-18 18-17 18-18 20-19 22-20 24-21 26-23 29-25 31-26m-730 724 71-61 69-59 64-56 60-53 54-49 48-45 42-40 35-35 30-31 25-27 22-24 19-22 17-19 17-19 18-19 18-19 21-20 22-21 25-22 27-24 30-26 32-28m-634 673 66-59 62-56 57-53 51-49 45-44 39-40 32-35 28-30 23-28 20-24 17-22 17-21 17-19 17-20 19-20 20-21 24-23 25-23 29-26 31-27 34-29m-614 684 65-59 59-56 54-53 48-48 42-44 35-39 30-35 25-31 21-27 19-25 17-23 16-22 17-21 17-20 19-22 22-22 24-24 27-25 30-26 32-29 35-29m-595 695 62-59 56-56 51-52 44-47 39-44 33-39 27-35 24-31 20-29 17-25 17-24 16-23 17-22 18-22 20-22 22-24 25-25 28-26 31-28 33-29m-543 678 59-59 53-56 47-51 42-48 36-43 30-39 26-36 22-32 19-28 17-27 16-25 17-23 17-24 19-23 21-24 23-25 26-26 29-27 32-29m-441 602 50-55 45-52 39-47 33-44 29-39 24-36 21-32 19-30 17-27 16-26 17-25 18-25 20-24 22-25 24-26 27-27 30-29m-401 585 47-55 42-51 36-48 32-43 27-40 24-36 20-33 19-31 17-29 17-27 17-26 19-26 21-25 23-27 25-27 28-28m-366 568 44-55 39-51 35-47 30-44 27-40 23-37 20-34 19-32 18-30 17-28 19-27 19-27 22-27 24-28 26-28m-295 496 38-51 33-48 30-44 26-40 23-38 20-35 20-33 18-31 19-29 19-29 21-28 22-28 25-29m-271 479 36-52 32-47 29-45 27-41 23-39 22-36 20-34 19-32 20-30 20-30 22-30 23-29m-251 460 35-51 32-48 29-45 27-42 24-40 23-37 21-35 21-33 20-32 21-31 23-31m-235 440 36-52 32-48 30-46 27-43 26-40 24-38 22-36 22-35 21-33 22-32m-184 366 33-49 31-46 29-44 27-42 25-39 24-37 22-36 23-34m-169 341 34-50 32-47 31-44 28-43 26-40 25-39 24-36m-154 312 36-50 34-48 32-45 30-44 28-41 26-39m-99 230 36-49 34-46 31-45 29-42m-75 194 38-49 35-48 33-45m-48 155 40-51 37-48"/><g fill="#ffea00" fill-opacity=".45"><circle cx="25" cy="-466" r="0.7"/><circle cx="-1080" cy="-484" r="1"/><circle cx="-1020" cy="-277" r="0.9"/><circle cx="-68" cy="-99" r="0.7"/><circle cx="890" cy="23" r="0.9"/><circle cx="1194" cy="224" r="1"/><circle cx="113" cy="310" r="0.7"/><circle cx="-731" cy="442" r="0.7"/><circle cx="685" cy="563" r="0.7"/><circle cx="-674" cy="525" r="0.7"/><circle cx="-898" cy="455" r="0.8"/><circle cx="-288" cy="445" r="1"/><circle cx="770" cy="186" r="0.8"/><circle cx="843" cy="16" r="0.7"/><circle cx="302" cy="-141" r="0.9"/><circle cx="-877" cy="-313" r="1"/><circle cx="-884" cy="-340" r="0.7"/><circle cx="-304" cy="-493" r="0.8"/><circle cx="-339" cy="-446" r="0.7"/><circle cx="603" cy="-413" r="0.8"/><circle cx="1313" cy="-378" r="1"/><circle cx="403" cy="-124" r="0.8"/><circle cx="-514" cy="46" r="0.7"/><circle cx="-1219" cy="262" r="1"/><circle cx="-514" cy="407" r="0.9"/><circle cx="489" cy="392" r="0.7"/><circle cx="1048" cy="555" r="0.8"/><circle cx="881" cy="380" r="0.7"/><circle cx="585" cy="343" r="0.8"/><circle cx="-582" cy="262" r="1"/><circle cx="-943" cy="56" r="0.7"/><circle cx="-529" cy="-96" r="0.7"/><circle cx="524" cy="-352" r="1"/><circle cx="1097" cy="-468" r="0.9"/><circle cx="515" cy="-457" r="0.7"/><circle cx="701" cy="-565" r="0.9"/><circle cx="-275" cy="-341" r="0.7"/><circle cx="-1118" cy="-276" r="0.9"/><circle cx="-877" cy="-126" r="1"/><circle cx="246" cy="31" r="0.7"/><circle cx="935" cy="166" r="0.8"/><circle cx="957" cy="422" r="1"/><circle cx="-234" cy="484" r="0.8"/><circle cx="-827" cy="507" r="0.7"/><circle cx="856" cy="574" r="0.7"/><circle cx="-932" cy="482" r="0.8"/><circle cx="-694" cy="309" r="0.7"/><circle cx="152" cy="227" r="1"/><circle cx="1102" cy="21" r="1"/><circle cx="717" cy="-119" r="0.7"/><circle cx="-91" cy="-269" r="0.8"/><circle cx="-1206" cy="-505" r="1"/><circle cx="-833" cy="-486" r="0.8"/><circle cx="29" cy="-536" r="0.7"/></g></svg>
